<?xml version="1.0" encoding="utf-8"?>
<svg id="master-artboard" viewBox="0 0 1400 980" version="1.1" xmlns="http://www.w3.org/2000/svg" x="0px" y="0px" style="enable-background:new 0 0 1400 980;" width="1400px" height="980px">

<path id="XMLID_837_" class="st0" d="M1062.6,407.3v35.9c0,4.9,6,7.4,9.4,3.9l10.8-10.8l10.7,10.7c3.5,3.5,9.4,1,9.4-3.9v-35.8&#10;&#9;&#9;h75.3v-192h-115.7h-11.1h-22.9c-7.3,0-13.3,6-13.3,13.3V394c0,7.3,6,13.3,13.3,13.3h22.9H1062.6z" style="opacity: 0.15; fill: rgb(35, 35, 35);" transform="matrix(2.1607446670532227, 0, 0, 2.1607446670532227, -1696.052333780671, -238.38481806616295)"/><g id="XMLID_411_" transform="matrix(2.1607446670532227, 0, 0, 2.1607446670532227, -1696.052333780671, -238.38481806616295)">
			<g id="XMLID_413_">
				<g id="XMLID_453_">
					<path d="M 1097.5 375.79998779296875 L 1097.5 437.70001220703125 L 1082.9000244140625 423.1000061035156 L 1068.0999755859375 437.8999938964844 L 1068.0999755859375 375.79998779296875 Z" id="XMLID_454_" class="st1" style="fill: rgb(255, 203, 74);"/>
					<path id="XMLID_455_" class="st2" d="M1062.6,437.9v-67.6h40.4v67.5c0,4.9-6,7.4-9.4,3.9l-10.7-10.7l-10.8,10.8&#10;&#9;&#9;&#9;&#9;&#9;&#9;C1068.6,445.3,1062.6,442.8,1062.6,437.9z M1073.7,381.3v43.2l9.2-9.2l9,9v-43H1073.7z" style="fill: rgb(35, 35, 35);"/>
				</g>
				<g id="XMLID_437_">
					<g id="XMLID_438_">
						<path id="XMLID_439_" class="st3" d="M1028.7,215.4c-4.3,0-7.7,3.5-7.7,7.7v165.5c0,4.3,3.5,7.7,7.7,7.7h28.4v-181H1028.7z" style="fill: rgb(7, 137, 121);"/>
						<path id="XMLID_440_" class="st2" d="M1062.6,401.9h-33.9c-7.3,0-13.3-6-13.3-13.3V223.2c0-7.3,6-13.3,13.3-13.3h33.9V401.9z&#10;&#9;&#9;&#9;&#9;&#9;&#9;&#9; M1028.7,221c-1.2,0-2.2,1-2.2,2.2v165.5c0,1.2,1,2.2,2.2,2.2h22.9V221H1028.7z" style="fill: rgb(35, 35, 35);"/>
					</g>
					<g id="XMLID_443_">
						<path d="M 1057.099976 215.399994 H 1172.799973 V 396.399994 H 1057.099976 V 215.399994 Z" id="XMLID_444_" class="st4" style="fill: rgb(16, 191, 174);"/>
						<path id="XMLID_445_" class="st2" d="M1178.3,401.9h-126.8v-192h126.8V401.9z M1062.6,390.9h104.6V221h-104.6V390.9z" style="fill: rgb(35, 35, 35);"/>
					</g>
				</g>
				<g id="XMLID_458_">
					<path d="M 1034.199951 253.100006 H 1043.699951 V 358.700005 H 1034.199951 V 253.100006 Z" id="XMLID_459_" class="st4" style="fill: rgb(16, 191, 174);"/>
				</g>
				<g id="XMLID_414_">
					<path d="M 1079.099976 253.100006 H 1150.699974 V 262.600006 H 1079.099976 V 253.100006 Z" id="XMLID_415_" class="st3" style="fill: rgb(7, 137, 121);"/>
				</g>
				<g id="XMLID_416_">
					<path d="M 1079.099976 272.600006 H 1150.699974 V 282.100006 H 1079.099976 V 272.600006 Z" id="XMLID_417_" class="st3" style="fill: rgb(7, 137, 121);"/>
				</g>
				<g id="XMLID_418_">
					<path d="M 1092.599976 293.100006 H 1137.299976 V 302.600006 H 1092.599976 V 293.100006 Z" id="XMLID_419_" class="st3" style="fill: rgb(7, 137, 121);"/>
				</g>
				<g id="XMLID_420_">
					<path d="M 1079.099976 358.700012 H 1150.699974 V 368.200012 H 1079.099976 V 358.700012 Z" id="XMLID_421_" class="st3" style="fill: rgb(7, 137, 121);"/>
				</g>
			</g>
		</g>





</svg>